<svg width="496" height="107" viewBox="0 0 496 107" fill="none" xmlns="http://www.w3.org/2000/svg">
<mask id="mask0_3_9" style="mask-type:luminance" maskUnits="userSpaceOnUse" x="0" y="0" width="496" height="107">
<path d="M0 0.666748H496V106.917H0V0.666748Z" fill="white"/>
</mask>
<g mask="url(#mask0_3_9)">
<path d="M495.604 5.12508H311.052L261.719 1.35425C261.917 2.24487 262.016 3.14071 262.016 4.13029C262.016 4.82821 262.016 5.52091 261.917 6.11467C261.818 6.71362 261.719 7.30737 261.521 7.90112C261.323 8.49487 261.125 9.09383 260.927 9.58862C260.927 9.68758 260.828 9.78654 260.828 9.78654C260.729 10.0834 260.531 10.3803 260.333 10.6824C260.234 10.8803 260.135 10.9792 260.036 11.1772C259.839 11.573 259.542 11.9688 259.245 12.3647C259.146 12.4636 259.146 12.5626 259.047 12.6667C258.75 13.0626 258.453 13.4584 258.052 13.7553C258.052 13.7553 257.953 13.8542 257.953 13.9532C257.557 14.349 257.161 14.7501 256.766 15.047C256.766 15.047 256.766 15.047 256.667 15.1459C256.271 15.4428 255.776 15.8386 255.38 16.1355C254.984 16.4324 254.49 16.6303 253.995 16.9324C253.995 16.9324 253.896 16.9324 253.896 17.0313C253.5 17.2292 253 17.4272 252.505 17.5261C252.406 17.5261 252.307 17.6251 252.307 17.6251C251.911 17.724 251.417 17.922 251.021 18.0209C250.922 18.0209 250.823 18.0209 250.724 18.1199C250.328 18.2188 249.932 18.2188 249.438 18.3178C249.339 18.3178 249.24 18.3178 249.042 18.3178C248.646 18.3178 248.349 18.4167 247.948 18.4167H247.849C247.75 18.4167 247.651 18.4167 247.453 18.4167C247.057 18.4167 246.661 18.4167 246.266 18.3178C246.167 18.3178 245.969 18.3178 245.87 18.3178C245.474 18.2188 245.078 18.2188 244.682 18.1199C244.583 18.1199 244.484 18.0209 244.286 18.0209C243.891 17.922 243.495 17.823 243.099 17.6251C242.995 17.6251 242.896 17.5261 242.797 17.5261C242.401 17.4272 242.005 17.2292 241.609 17.0313C241.51 17.0313 241.411 16.9324 241.312 16.9324C240.917 16.7345 240.521 16.4324 240.125 16.2345C240.026 16.2345 240.026 16.1355 239.927 16.1355C239.531 15.8386 239.135 15.5417 238.839 15.2449L238.74 15.1459C238.344 14.849 237.943 14.448 237.646 14.0522C237.25 13.6563 236.953 13.2605 236.656 12.7657L236.755 12.6667H236.656C236.359 12.2657 236.062 11.7709 235.766 11.2761C235.766 11.2761 235.667 11.1772 235.667 11.0782C235.469 10.7813 235.37 10.4792 235.172 10.1824C235.073 10.0834 235.073 9.8855 234.974 9.78654C234.776 9.29175 234.578 8.698 234.38 8.198C234.281 7.60425 234.083 7.10946 234.083 6.51571C233.984 5.81779 233.984 5.22404 233.984 4.53133C233.984 3.53654 234.083 2.64591 234.281 1.75008L184.948 5.52092H0.494792C0.197917 5.52092 0 5.71883 0 6.01571C0 6.31258 0.197917 6.51571 0.494792 6.51571H185.146L223.385 9.39071L209.318 13.0626L149.781 23.974C149.484 23.974 149.385 24.2709 149.385 24.4688C149.385 24.6667 149.583 24.8699 149.88 24.8699H149.979L209.516 13.9532L224.573 12.3647L210.505 18.2188L152.953 37.073C152.75 37.172 152.552 37.3699 152.651 37.6667C152.75 37.8647 152.854 37.9636 153.052 37.9636H153.151L210.703 19.1147L225.365 15.5417L212.286 23.1824L157.703 49.672C157.505 49.7709 157.406 50.0678 157.505 50.2657C157.604 50.4636 157.703 50.5626 157.906 50.5626C158.005 50.5626 158.005 50.5626 158.104 50.5626L212.682 24.073L226.651 18.5157L214.766 27.8438L164.245 61.4792C164.047 61.5782 163.948 61.8751 164.146 62.073C164.245 62.172 164.344 62.2709 164.542 62.2709C164.641 62.2709 164.74 62.2709 164.839 62.172L215.359 28.5365L228.536 21.198L217.932 31.6147L172.365 71.698C172.167 71.8959 172.167 72.1928 172.365 72.3907C172.464 72.4897 172.562 72.5886 172.76 72.5886C172.859 72.5886 172.964 72.5886 173.062 72.4897L218.531 32.4063L230.714 23.2813L221.599 35.4845L181.776 81.3178C181.578 81.5157 181.677 81.8178 181.776 82.0157C181.875 82.1147 181.974 82.1147 182.073 82.1147C182.172 82.1147 182.37 82.0157 182.469 81.9167L222.292 35.9792L232.99 25.3647L225.661 38.6563L192.276 89.5522C192.177 89.7501 192.177 90.0522 192.375 90.1511C192.474 90.2501 192.573 90.2501 192.672 90.2501C192.87 90.2501 192.974 90.1511 193.073 90.0522L226.354 39.2553L235.568 27.2501L230.021 41.4376L203.87 96.2032C203.771 96.4011 203.87 96.698 204.068 96.797C204.167 96.797 204.167 96.797 204.266 96.797C204.464 96.797 204.562 96.698 204.661 96.5001L230.911 41.6355L238.443 28.5365L234.875 43.323L216.151 101.26C216.052 101.458 216.25 101.755 216.448 101.854H216.547C216.745 101.854 216.943 101.755 216.943 101.557L235.667 43.6199L241.411 29.6303L239.828 44.8074L229.031 104.734C229.031 105.031 229.13 105.229 229.427 105.229H229.526C229.724 105.229 229.922 105.031 230.021 104.833L241.016 44.9063L244.781 30.224L245.276 45.4063L242.599 106.224C242.599 106.521 242.797 106.719 242.995 106.719C243.198 106.719 243.495 106.521 243.495 106.323L246.167 45.5053L247.948 30.422L250.427 45.4063L255.875 106.021C255.875 106.224 256.073 106.422 256.37 106.422C256.667 106.422 256.766 106.224 256.766 105.922L251.318 45.3074L251.12 30.1251L255.578 44.6095L269.151 104.037C269.151 104.24 269.349 104.438 269.646 104.438H269.745C270.042 104.339 270.141 104.135 270.141 103.839L256.568 44.5105L254.292 29.4324L260.729 43.224L282.026 100.172C282.125 100.37 282.224 100.469 282.422 100.469C282.521 100.469 282.521 100.469 282.62 100.469C282.818 100.37 283.016 100.068 282.917 99.8699L261.62 42.922L257.359 28.4376L265.484 41.2397L294.214 94.8126C294.312 95.0105 294.411 95.0105 294.609 95.0105C294.708 95.0105 294.807 95.0105 294.807 94.9115C295.005 94.8126 295.104 94.5157 295.005 94.3178L266.276 40.7397L260.135 26.8542L269.943 38.4584L305.604 87.6667C305.703 87.7657 305.802 87.8647 306 87.8647C306.099 87.8647 306.198 87.8647 306.297 87.7657C306.495 87.5678 306.594 87.3699 306.396 87.073L270.833 37.9636L262.906 24.9688L274.203 35.1876L316.005 79.1355C316.104 79.2345 316.203 79.2345 316.302 79.2345C316.401 79.2345 316.5 79.2345 316.599 79.1355C316.797 78.9376 316.797 78.6407 316.599 78.4428L274.698 34.4897L265.089 22.7865L277.568 31.3178L325.021 69.3126C325.12 69.4115 325.219 69.4115 325.318 69.4115C325.417 69.4115 325.615 69.3126 325.714 69.2136C325.911 69.0157 325.812 68.7188 325.615 68.5209L278.266 30.6199L267.167 20.3022L280.74 27.0522L332.745 58.2032C332.844 58.2032 332.943 58.3022 332.943 58.3022C333.141 58.3022 333.24 58.2032 333.344 58.1042C333.443 57.9063 333.443 57.6095 333.141 57.5105L281.135 26.3542L268.755 17.6251L283.115 22.4845L338.792 46.3959C338.891 46.3959 338.891 46.3959 338.99 46.3959C339.188 46.3959 339.385 46.297 339.385 46.099C339.484 45.9011 339.385 45.6042 339.188 45.5053L283.516 21.5938L270.141 14.6511L285 17.5261L343.349 33.698H343.448C343.646 33.698 343.844 33.599 343.943 33.4011C344.042 33.2032 343.844 32.9011 343.646 32.8022L285.297 16.6303L271.031 11.474L286.188 12.3647L346.12 20.5001C346.12 20.5001 346.12 20.5001 346.219 20.5001C346.417 20.5001 346.615 20.3022 346.714 20.1042C346.714 19.8074 346.615 19.6095 346.318 19.6095L286.286 11.3751L274.401 8.79696L310.854 6.01571H495.505C495.802 6.01571 496 5.81779 496 5.52092C496 5.22404 495.802 5.12508 495.604 5.12508Z" fill="#DFA23E"/>
</g>
</svg>
