<svg width="496" height="113" viewBox="0 0 496 113" fill="none" xmlns="http://www.w3.org/2000/svg">
<mask id="mask0_7_2" style="mask-type:luminance" maskUnits="userSpaceOnUse" x="0" y="6" width="496" height="107">
<path d="M0 6.66675H496V112.917H0V6.66675Z" fill="white"/>
</mask>
<g mask="url(#mask0_7_2)">
<path d="M495.604 11.1251H311.052L261.719 7.35425C261.917 8.24487 262.016 9.14071 262.016 10.1303C262.016 10.8282 262.016 11.5209 261.917 12.1147C261.818 12.7136 261.719 13.3074 261.521 13.9011C261.323 14.4949 261.125 15.0938 260.927 15.5886C260.927 15.6876 260.828 15.7865 260.828 15.7865C260.729 16.0834 260.531 16.3803 260.333 16.6824C260.234 16.8803 260.135 16.9792 260.036 17.1772C259.839 17.573 259.542 17.9688 259.245 18.3647C259.146 18.4636 259.146 18.5626 259.047 18.6667C258.75 19.0626 258.453 19.4584 258.052 19.7553C258.052 19.7553 257.953 19.8542 257.953 19.9532C257.557 20.349 257.161 20.7501 256.766 21.047C256.766 21.047 256.766 21.047 256.667 21.1459C256.271 21.4428 255.776 21.8386 255.38 22.1355C254.984 22.4324 254.49 22.6303 253.995 22.9324C253.995 22.9324 253.896 22.9324 253.896 23.0313C253.5 23.2292 253 23.4272 252.505 23.5261C252.406 23.5261 252.307 23.6251 252.307 23.6251C251.911 23.724 251.417 23.922 251.021 24.0209C250.922 24.0209 250.823 24.0209 250.724 24.1199C250.328 24.2188 249.932 24.2188 249.438 24.3178C249.339 24.3178 249.24 24.3178 249.042 24.3178C248.646 24.3178 248.349 24.4167 247.948 24.4167H247.849C247.75 24.4167 247.651 24.4167 247.453 24.4167C247.057 24.4167 246.661 24.4167 246.266 24.3178C246.167 24.3178 245.969 24.3178 245.87 24.3178C245.474 24.2188 245.078 24.2188 244.682 24.1199C244.583 24.1199 244.484 24.0209 244.286 24.0209C243.891 23.922 243.495 23.823 243.099 23.6251C242.995 23.6251 242.896 23.5261 242.797 23.5261C242.401 23.4272 242.005 23.2292 241.609 23.0313C241.51 23.0313 241.411 22.9324 241.313 22.9324C240.917 22.7345 240.521 22.4324 240.125 22.2345C240.026 22.2345 240.026 22.1355 239.927 22.1355C239.531 21.8386 239.135 21.5417 238.839 21.2449L238.74 21.1459C238.344 20.849 237.943 20.448 237.646 20.0522C237.25 19.6563 236.953 19.2605 236.656 18.7657L236.755 18.6667H236.656C236.359 18.2657 236.063 17.7709 235.766 17.2761C235.766 17.2761 235.667 17.1772 235.667 17.0782C235.469 16.7813 235.37 16.4792 235.172 16.1824C235.073 16.0834 235.073 15.8855 234.974 15.7865C234.776 15.2917 234.578 14.698 234.38 14.198C234.281 13.6042 234.083 13.1095 234.083 12.5157C233.984 11.8178 233.984 11.224 233.984 10.5313C233.984 9.53654 234.083 8.64591 234.281 7.75008L184.948 11.5209H0.494792C0.197917 11.5209 0 11.7188 0 12.0157C0 12.3126 0.197917 12.5157 0.494792 12.5157H185.146L223.385 15.3907L209.318 19.0626L149.781 29.974C149.484 29.974 149.385 30.2709 149.385 30.4688C149.385 30.6667 149.583 30.8699 149.88 30.8699H149.979L209.516 19.9532L224.573 18.3647L210.505 24.2188L152.953 43.073C152.75 43.172 152.552 43.3699 152.651 43.6667C152.75 43.8647 152.854 43.9636 153.052 43.9636H153.151L210.703 25.1147L225.365 21.5417L212.286 29.1824L157.703 55.672C157.505 55.7709 157.406 56.0678 157.505 56.2657C157.604 56.4636 157.703 56.5626 157.906 56.5626C158.005 56.5626 158.005 56.5626 158.104 56.5626L212.682 30.073L226.651 24.5157L214.766 33.8438L164.245 67.4792C164.047 67.5782 163.948 67.8751 164.146 68.073C164.245 68.172 164.344 68.2709 164.542 68.2709C164.641 68.2709 164.74 68.2709 164.839 68.172L215.359 34.5365L228.536 27.198L217.932 37.6147L172.365 77.698C172.167 77.8959 172.167 78.1928 172.365 78.3907C172.464 78.4897 172.563 78.5886 172.76 78.5886C172.859 78.5886 172.964 78.5886 173.063 78.4897L218.531 38.4063L230.714 29.2813L221.599 41.4845L181.776 87.3178C181.578 87.5157 181.677 87.8178 181.776 88.0157C181.875 88.1147 181.974 88.1147 182.073 88.1147C182.172 88.1147 182.37 88.0157 182.469 87.9168L222.292 41.9792L232.99 31.3647L225.661 44.6563L192.276 95.5522C192.177 95.7501 192.177 96.0522 192.375 96.1511C192.474 96.2501 192.573 96.2501 192.672 96.2501C192.87 96.2501 192.974 96.1511 193.073 96.0522L226.354 45.2553L235.568 33.2501L230.021 47.4376L203.87 102.203C203.771 102.401 203.87 102.698 204.068 102.797C204.167 102.797 204.167 102.797 204.266 102.797C204.464 102.797 204.563 102.698 204.661 102.5L230.911 47.6355L238.443 34.5365L234.875 49.323L216.151 107.261C216.052 107.458 216.25 107.755 216.448 107.854H216.547C216.745 107.854 216.943 107.755 216.943 107.557L235.667 49.6199L241.411 35.6303L239.828 50.8074L229.031 110.734C229.031 111.031 229.13 111.229 229.427 111.229H229.526C229.724 111.229 229.922 111.031 230.021 110.833L241.016 50.9063L244.781 36.224L245.276 51.4063L242.599 112.224C242.599 112.521 242.797 112.719 242.995 112.719C243.198 112.719 243.495 112.521 243.495 112.323L246.167 51.5053L247.948 36.422L250.427 51.4063L255.875 112.021C255.875 112.224 256.073 112.422 256.37 112.422C256.667 112.422 256.766 112.224 256.766 111.922L251.318 51.3074L251.12 36.1251L255.578 50.6095L269.151 110.037C269.151 110.24 269.349 110.438 269.646 110.438H269.745C270.042 110.339 270.141 110.136 270.141 109.839L256.568 50.5105L254.292 35.4324L260.729 49.224L282.026 106.172C282.125 106.37 282.224 106.469 282.422 106.469C282.521 106.469 282.521 106.469 282.62 106.469C282.818 106.37 283.016 106.068 282.917 105.87L261.62 48.922L257.359 34.4376L265.484 47.2397L294.214 100.813C294.313 101.011 294.411 101.011 294.609 101.011C294.708 101.011 294.807 101.01 294.807 100.912C295.005 100.813 295.104 100.516 295.005 100.318L266.276 46.7397L260.135 32.8542L269.943 44.4584L305.604 93.6668C305.703 93.7657 305.802 93.8647 306 93.8647C306.099 93.8647 306.198 93.8647 306.297 93.7657C306.495 93.5678 306.594 93.3699 306.396 93.073L270.833 43.9636L262.906 30.9688L274.203 41.1876L316.005 85.1355C316.104 85.2345 316.203 85.2345 316.302 85.2345C316.401 85.2345 316.5 85.2345 316.599 85.1355C316.797 84.9376 316.797 84.6407 316.599 84.4428L274.698 40.4897L265.089 28.7865L277.568 37.3178L325.021 75.3126C325.12 75.4115 325.219 75.4115 325.318 75.4115C325.417 75.4115 325.615 75.3126 325.714 75.2136C325.911 75.0157 325.813 74.7188 325.615 74.5209L278.266 36.6199L267.167 26.3022L280.74 33.0522L332.745 64.2032C332.844 64.2032 332.943 64.3022 332.943 64.3022C333.141 64.3022 333.24 64.2032 333.344 64.1042C333.443 63.9063 333.443 63.6095 333.141 63.5105L281.135 32.3542L268.755 23.6251L283.115 28.4845L338.792 52.3959C338.891 52.3959 338.891 52.3959 338.99 52.3959C339.188 52.3959 339.385 52.297 339.385 52.099C339.484 51.9011 339.385 51.6042 339.188 51.5053L283.516 27.5938L270.141 20.6511L285 23.5261L343.349 39.698H343.448C343.646 39.698 343.844 39.599 343.943 39.4011C344.042 39.2032 343.844 38.9011 343.646 38.8022L285.297 22.6303L271.031 17.474L286.188 18.3647L346.12 26.5001C346.12 26.5001 346.12 26.5001 346.219 26.5001C346.417 26.5001 346.615 26.3022 346.714 26.1042C346.714 25.8074 346.615 25.6095 346.318 25.6095L286.286 17.3751L274.401 14.797L310.854 12.0157H495.505C495.802 12.0157 496 11.8178 496 11.5209C496 11.224 495.802 11.1251 495.604 11.1251Z" fill="#DFA23E"/>
</g>
<path d="M238.443 12.2135C238.542 12.6146 238.641 13.0104 238.74 13.3073C238.839 13.7031 238.938 14 239.135 14.2969C239.135 14.3958 239.234 14.3958 239.234 14.4948C239.333 14.7969 239.531 14.9948 239.63 15.2917C239.828 15.5885 240.026 15.8854 240.224 16.1823L240.125 16.2812H240.323C240.521 16.4792 240.719 16.7813 240.917 16.9792C241.016 17.0781 241.115 17.1771 241.115 17.1771C241.312 17.375 241.411 17.474 241.609 17.6719C241.708 17.7708 241.807 17.8698 242.005 17.9688C242.104 18.0677 242.302 18.1667 242.401 18.2656C242.599 18.3646 242.698 18.4635 242.896 18.5625C242.995 18.6667 243.099 18.6667 243.297 18.7656C243.495 18.8646 243.693 18.9635 243.891 19.0625C243.99 19.0625 244.089 19.1615 244.188 19.1615C244.385 19.2604 244.682 19.3594 244.88 19.4583C244.979 19.4583 245.078 19.5573 245.078 19.5573C245.276 19.6562 245.573 19.6563 245.87 19.7552C245.969 19.7552 245.969 19.7552 246.068 19.7552C246.365 19.8542 246.563 19.8542 246.859 19.8542C246.958 19.8542 246.958 19.8542 247.057 19.8542C247.354 19.8542 247.552 19.8542 247.849 19.8542H248.047C248.349 19.8542 248.547 19.8542 248.844 19.8542C248.943 19.8542 249.042 19.8542 249.141 19.8542C249.339 19.8542 249.635 19.7552 249.833 19.7552C249.932 19.7552 250.13 19.6562 250.229 19.6562C250.427 19.6562 250.625 19.5573 250.823 19.4583C251.021 19.4583 251.219 19.3594 251.318 19.2604C251.516 19.1615 251.615 19.1615 251.812 19.0625C252.01 18.9635 252.208 18.8646 252.406 18.7656C252.505 18.7656 252.604 18.6667 252.703 18.5625C253 18.3646 253.203 18.2656 253.5 18.0677L253.698 18.1667L253.599 18.0677C253.896 17.8698 254.193 17.6719 254.391 17.375C254.688 17.1771 254.885 16.8802 255.182 16.5833C255.281 16.4792 255.281 16.4792 255.38 16.3802C255.578 16.1823 255.776 15.8854 255.875 15.6875C256.073 15.3906 256.271 14.9948 256.469 14.6979C256.469 14.599 256.568 14.4948 256.568 14.3958C256.667 14.099 256.865 13.901 256.964 13.6042C257.161 13.2083 257.26 12.8125 257.359 12.4115C257.458 12.0156 257.557 11.5208 257.557 11.125C257.557 10.7292 257.656 10.4271 257.656 10.0312C257.656 9.23958 257.557 8.44792 257.359 7.75C256.37 3.38542 252.406 0.109375 247.75 0.109375C243.099 0.109375 239.234 3.38542 238.146 7.75C237.943 8.44792 237.844 9.23958 237.844 10.0312C237.844 10.3281 237.844 10.6302 237.844 10.9271C238.245 11.4219 238.344 11.8177 238.443 12.2135Z" fill="#DFA23E"/>
</svg>
